Coordinates
version=1
nRows=14
nColumns=46
inDegrees=yes

Units are S.I. units (second, meters, Newtons, ...)
Angles are in degrees.

endheader
time	pelvis_tilt	pelvis_list	pelvis_rotation	pelvis_tx	pelvis_ty	pelvis_tz	bb_angle	bb_tx	bb_ty	bb_tz	hip_flexion_r	hip_adduction_r	hip_rotation_r	knee_angle_r	knee_angle_r_beta	ankle_angle_r	subtalar_angle_r	mtp_angle_r	crank_angle_r	hip_flexion_l	hip_adduction_l	hip_rotation_l	knee_angle_l	knee_angle_l_beta	ankle_angle_l	subtalar_angle_l	mtp_angle_l	crank_angle_l	lumbar_extension	lumbar_bending	lumbar_rotation	arm_flex_r	arm_add_r	arm_rot_r	elbow_flex_r	pro_sup_r	wrist_flex_r	wrist_dev_r	arm_flex_l	arm_add_l	arm_rot_l	elbow_flex_l	pro_sup_l	wrist_flex_l	wrist_dev_l
      0.00500000	    -24.00409741	     -0.03203074	      3.03281212	      0.11373039	      1.04171341	     -0.23134391	      0.00000000	      0.50000000	      0.00000000	      0.25000000	     57.59798475	     -6.56463489	     -0.82686864	     71.95602247	      1.25586951	     21.10325243	     -0.87918005	      0.00000000	      0.00000000	     84.64117065	     -5.98954958	     -2.05720331	     66.72942333	      1.16464814	      3.70946568	     -0.60971631	      0.00000000	      0.00000000	    -51.11286954	     -0.71041719	     -1.90079489	     89.65348027	     -9.56252699	     21.40606668	     48.21689005	     29.28625288	      0.00000000	      0.00000000	     89.65128569	     -6.62243704	     19.78078200	     51.43510534	     29.26084013	      0.00000000	      0.00000000
      0.01000000	    -24.02340544	     -0.03190206	      3.03156223	      0.11373162	      1.04172276	     -0.23135810	      0.00000000	      0.50000000	      0.00000000	      0.25000000	     57.61073399	     -6.57097858	     -0.83747792	     71.93296955	      1.25546716	     21.08708179	     -0.86713554	      0.00000000	      0.00000000	     84.65766420	     -5.98416232	     -2.04714206	     66.72436106	      1.16455979	      3.71625084	     -0.58468130	      0.00000000	      0.00000000	    -51.09648510	     -0.70369326	     -1.91404091	     89.65352445	     -9.43153771	     21.01020719	     47.69638979	     31.93681993	      0.00000000	      0.00000000	     89.65186354	     -6.60194222	     19.56569884	     50.96113853	     31.87651052	      0.00000000	      0.00000000
      0.01500000	    -24.01888669	     -0.00121659	      3.03083099	      0.11373008	      1.04175269	     -0.23134430	      0.00000000	      0.50000000	      0.00000000	      0.25000000	     57.61074640	     -6.59019918	     -0.79649259	     71.93203297	      1.25545081	     21.10242455	     -0.80351326	      0.00000000	      0.00000000	     84.64603862	     -5.98587152	     -2.09039526	     66.72678057	      1.16460202	      3.73145505	     -0.56206135	      0.00000000	      0.00000000	    -51.10601009	     -0.72077179	     -1.92512733	     89.65533945	     -9.44514559	     21.00408202	     47.62429392	     32.38836906	      0.00000000	      0.00000000	     89.65026233	     -6.61731791	     19.52954590	     50.92028929	     32.30431178	      0.00000000	      0.00000000
      0.02000000	    -24.13810159	     -0.12445900	      3.03843243	      0.11385917	      1.04122495	     -0.23164184	      0.00000000	      0.50000000	      0.00000000	      0.25000000	     57.73624964	     -6.58553600	     -0.92955291	     72.00283569	      1.25668655	     21.24247693	     -0.54607545	      0.00000000	      0.00000000	     84.86457492	     -5.97972821	     -1.92881958	     66.86862513	      1.16707767	      3.85605012	     -0.44794304	      0.00000000	      0.00000000	    -50.92562459	     -0.58592497	     -1.83846140	     89.64967497	     -9.34494551	     20.64037687	     47.31442506	     34.07428480	      0.00000000	      0.00000000	     89.64277575	     -6.59849925	     19.34570405	     50.66894328	     34.01173961	      0.00000000	      0.00000000
      0.02500000	    -24.20908369	     -0.14396859	      2.93819210	      0.11371838	      1.04131705	     -0.23156609	      0.00000000	      0.50000000	      0.00000000	      0.25000000	     57.82569903	     -6.47335122	     -0.88286938	     71.98791376	      1.25642612	     21.11709015	     -0.77262315	      0.00000000	      0.00000000	     84.95478076	     -6.06907090	     -1.86144652	     66.90741410	      1.16775467	      3.79766497	     -0.55547091	      0.00000000	      0.00000000	    -50.83005494	     -0.65680325	     -1.78179422	     89.65145696	     -9.50642698	     21.05150640	     47.22621066	     34.14349382	      0.00000000	      0.00000000	     89.64496096	     -6.61197531	     19.52104441	     50.43000933	     33.99283509	      0.00000000	      0.00000000
      0.03000000	    -24.22664090	     -0.14987672	      2.92022823	      0.11369981	      1.04136959	     -0.23154052	      0.00000000	      0.50000000	      0.00000000	      0.25000000	     57.83914331	     -6.44979947	     -0.86536735	     71.95899551	      1.25592140	     21.12494414	     -0.74466651	      0.00000000	      0.00000000	     84.96542955	     -6.08659301	     -1.87691366	     66.88234516	      1.16731713	      3.78542551	     -0.58834025	      0.00000000	      0.00000000	    -50.80274783	     -0.66869636	     -1.74808898	     89.65131195	     -9.57820836	     21.20220811	     47.24821473	     34.25656729	      0.00000000	      0.00000000	     89.64480685	     -6.58091059	     19.55309401	     50.42295130	     34.03146972	      0.00000000	      0.00000000
      0.03500000	    -24.23887162	     -0.16180555	      2.92730272	      0.11367572	      1.04137384	     -0.23157676	      0.00000000	      0.50000000	      0.00000000	      0.25000000	     57.84732799	     -6.44902709	     -0.87697927	     71.94790095	      1.25572776	     21.11271653	     -0.72870894	      0.00000000	      0.00000000	     84.98931509	     -6.07610902	     -1.85618076	     66.89160698	      1.16747878	      3.78924679	     -0.57885793	      0.00000000	      0.00000000	    -50.79140350	     -0.65499045	     -1.74023261	     89.65091656	     -9.59211473	     21.21671306	     47.23542195	     34.37645358	      0.00000000	      0.00000000	     89.64522884	     -6.56602330	     19.53985300	     50.39856794	     34.09872351	      0.00000000	      0.00000000
      0.04000000	    -24.16646590	     -0.15510909	      2.93140656	      0.11369848	      1.04151787	     -0.23160338	      0.00000000	      0.50000000	      0.00000000	      0.25000000	     57.75821450	     -6.46046147	     -0.88490247	     71.94145825	      1.25561532	     21.13311460	     -0.68986885	      0.00000000	      0.00000000	     84.90561641	     -6.07426653	     -1.85721188	     66.89159509	      1.16747858	      3.82320001	     -0.53552547	      0.00000000	      0.00000000	    -50.90228339	     -0.65398877	     -1.72954756	     89.65141028	     -9.59121567	     20.99660060	     47.27541336	     34.79100797	      0.00000000	      0.00000000	     89.64462337	     -6.52985111	     19.35818745	     50.47654000	     34.52023129	      0.00000000	      0.00000000
      0.04500000	    -24.15944844	     -0.17784904	      2.87749929	      0.11368801	      1.04154180	     -0.23147905	      0.00000000	      0.50000000	      0.00000000	      0.25000000	     57.74327623	     -6.37406856	     -0.85968345	     71.91082081	      1.25508059	     21.11668986	     -0.81406277	      0.00000000	      0.00000000	     84.91662619	     -6.15993601	     -1.87883306	     66.91557093	      1.16789703	      3.78321964	     -0.56378067	      0.00000000	      0.00000000	    -50.97517113	     -0.67415769	     -1.68285576	     89.64507319	     -9.60545935	     20.83514916	     47.58443143	     34.84183251	      0.00000000	      0.00000000	     89.64093241	     -6.55464462	     19.19478480	     50.79145069	     34.56536385	      0.00000000	      0.00000000
      0.05000000	    -24.22643154	     -0.15546865	      2.90104366	      0.11365347	      1.04143704	     -0.23156304	      0.00000000	      0.50000000	      0.00000000	      0.25000000	     57.83054365	     -6.43170349	     -0.86558443	     71.94687320	      1.25570982	     21.11645354	     -0.72245217	      0.00000000	      0.00000000	     84.97430198	     -6.10479413	     -1.86651818	     66.88597939	      1.16738056	      3.77156043	     -0.57207920	      0.00000000	      0.00000000	    -50.80921686	     -0.66352891	     -1.72147916	     89.65130511	     -9.58762718	     21.22633503	     47.23716801	     34.44010863	      0.00000000	      0.00000000	     89.64508914	     -6.57424943	     19.47140056	     50.41536264	     34.09320831	      0.00000000	      0.00000000
      0.05500000	    -24.15588888	     -0.14807550	      2.89314236	      0.11367315	      1.04158360	     -0.23154404	      0.00000000	      0.50000000	      0.00000000	      0.25000000	     57.73610259	     -6.42380358	     -0.85927808	     71.91816251	      1.25520873	     21.16934084	     -0.68504047	      0.00000000	      0.00000000	     84.89304975	     -6.10983033	     -1.86590539	     66.88860992	      1.16742648	      3.80444573	     -0.58452288	      0.00000000	      0.00000000	    -50.93650317	     -0.67774348	     -1.71647643	     89.65030133	     -9.60289471	     21.07528890	     47.42952187	     34.47201926	      0.00000000	      0.00000000	     89.64359966	     -6.54395243	     19.35607586	     50.64548305	     34.12910323	      0.00000000	      0.00000000
      0.06000000	    -24.11525774	     -0.14063201	      2.90587792	      0.11368682	      1.04168798	     -0.23158079	      0.00000000	      0.50000000	      0.00000000	      0.25000000	     57.67541613	     -6.44096524	     -0.85731765	     71.89686131	      1.25483695	     21.19728701	     -0.64602050	      0.00000000	      0.00000000	     84.83978788	     -6.09395824	     -1.87106826	     66.88671010	      1.16739332	      3.82984929	     -0.56057275	      0.00000000	      0.00000000	    -50.99444056	     -0.66931658	     -1.70608182	     89.65210766	     -9.58675014	     20.95429526	     47.39429849	     34.71644091	      0.00000000	      0.00000000	     89.64362335	     -6.50658621	     19.28147475	     50.64709244	     34.38068572	      0.00000000	      0.00000000
      0.06500000	    -24.23143058	     -0.14194012	      2.91491460	      0.11360703	      1.04141046	     -0.23158445	      0.00000000	      0.50000000	      0.00000000	      0.25000000	     57.83495563	     -6.45885748	     -0.87446777	     71.96379624	      1.25600519	     21.18527675	     -0.71816212	      0.00000000	      0.00000000	     84.97500592	     -6.07796954	     -1.85157566	     66.87277139	      1.16715004	      3.74985235	     -0.54224977	      0.00000000	      0.00000000	    -50.80809717	     -0.66829891	     -1.72900472	     89.65300560	     -9.59590939	     21.11533334	     47.26407077	     34.52306137	      0.00000000	      0.00000000	     89.64394595	     -6.54890868	     19.39559864	     50.43958392	     34.14043159	      0.00000000	      0.00000000
      0.07000000	    -24.23182857	     -0.12628653	      2.89343428	      0.11360693	      1.04144702	     -0.23156106	      0.00000000	      0.50000000	      0.00000000	      0.25000000	     57.82538787	     -6.44499327	     -0.83887304	     71.92805342	      1.25538136	     21.17685592	     -0.68631203	      0.00000000	      0.00000000	     84.97033879	     -6.09067829	     -1.87623995	     66.87362937	      1.16716502	      3.74196623	     -0.59667801	      0.00000000	      0.00000000	    -50.80844369	     -0.68126101	     -1.77064398	     89.65161833	     -9.52134439	     21.15663337	     47.19745082	     34.56761388	      0.00000000	      0.00000000	     89.64516732	     -6.60136087	     19.44494788	     50.41640129	     34.19814822	      0.00000000	      0.00000000
